<?xml version="1.0" encoding="UTF-8"?>
<svg width="20px" height="20px" viewBox="0 0 20 20" version="1.1" xmlns="http://www.w3.org/2000/svg" xmlns:xlink="http://www.w3.org/1999/xlink">
    <!-- Generator: Sketch 52 (66869) - http://www.bohemiancoding.com/sketch -->
    <title>icons/star/grey 1</title>
    <desc>Created with Sketch.</desc>
    <g id="sample-pages" stroke="none" stroke-width="1" fill="none" fill-rule="evenodd">
        <g id="icons/star/grey" fill="#EEEEEE">
            <path d="M12.5225597,5.91258374 C12.7022954,6.49100801 13.2162425,6.88441784 13.7991693,6.88441784 L19.0552256,6.88441784 C19.9694491,6.88441784 20.3483514,8.10835952 19.609006,8.66950222 L15.3565553,11.9021721 C14.8863277,12.2610188 14.6900757,12.8943375 14.8698114,13.4727617 L16.4932625,18.7029777 C16.7759819,19.6128014 15.7811203,20.3691242 15.0408033,19.8069649 L10.7883526,16.5753116 C10.3190965,16.2164649 9.68176325,16.2164649 9.21056411,16.5753116 L4.95811339,19.8069649 C4.21973949,20.3691242 3.22390627,19.6128014 3.50662575,18.7029777 L5.13104833,13.4727617 C5.31078408,12.8943375 5.11453207,12.2610188 4.64236139,11.9021721 L0.390882206,8.66950222 C-0.349434782,8.10835952 0.032382247,6.88441784 0.945634174,6.88441784 L6.20266202,6.88441784 C6.78267415,6.88441784 7.29856434,6.49100801 7.47830009,5.91258374 L9.10272266,0.682367821 C9.38544214,-0.22745594 10.6154176,-0.22745594 10.8981371,0.682367821 L12.5225597,5.91258374 Z" id="star-5"></path>
        </g>
    </g>
</svg>