<?xml version="1.0" encoding="UTF-8"?>
<svg width="40px" height="40px" viewBox="0 0 40 40" version="1.1" xmlns="http://www.w3.org/2000/svg" xmlns:xlink="http://www.w3.org/1999/xlink">
    <!-- Generator: Sketch 52 (66869) - http://www.bohemiancoding.com/sketch -->
    <title>icons/instagram/grey</title>
    <desc>Created with Sketch.</desc>
    <g id="sample-pages" stroke="none" stroke-width="1" fill="none" fill-rule="evenodd">
        <g id="icons/instagram/grey" transform="translate(0.000000, -0.000000)" fill="#EAEAEA">
            <path d="M20,40 C8.954305,40 0,31.045695 0,20 C0,8.954305 8.954305,0 20,0 C31.045695,0 40,8.954305 40,20 C40,31.045695 31.045695,40 20,40 Z M27.095,30.324 C28.326,30.324 29.324,29.326 29.324,28.094 L29.324,13.229 C29.324,11.998 28.326,11 27.095,11 L12.229,11 C10.998,11 10,11.998 10,13.229 L10,28.094 C10,29.326 10.998,30.324 12.229,30.324 L27.095,30.324 Z M27.095,19.175 L27.095,27.351 C27.095,27.761 26.762,28.094 26.351,28.094 L12.973,28.094 C12.562,28.094 12.229,27.761 12.229,27.351 L12.229,19.175 L13.911,19.175 C13.789,19.65 13.716,20.148 13.716,20.662 C13.716,23.946 16.378,26.608 19.662,26.608 C22.946,26.608 25.608,23.946 25.608,20.662 C25.608,20.148 25.535,19.65 25.413,19.175 L27.095,19.175 Z M27.095,13.972 L27.095,16.202 C27.095,16.613 26.762,16.945 26.351,16.945 L24.122,16.945 C23.711,16.945 23.379,16.613 23.379,16.202 L23.379,13.972 C23.379,13.562 23.711,13.229 24.122,13.229 L26.351,13.229 C26.762,13.229 27.095,13.562 27.095,13.972 Z M19.662,16.945 C21.714,16.945 23.379,18.609 23.379,20.662 C23.379,22.714 21.714,24.378 19.662,24.378 C17.609,24.378 15.946,22.714 15.946,20.662 C15.946,18.609 17.609,16.945 19.662,16.945 Z"></path>
        </g>
    </g>
</svg>