<?xml version="1.0" encoding="UTF-8"?>
<svg width="40px" height="40px" viewBox="0 0 40 40" version="1.1" xmlns="http://www.w3.org/2000/svg" xmlns:xlink="http://www.w3.org/1999/xlink">
    <!-- Generator: Sketch 52 (66869) - http://www.bohemiancoding.com/sketch -->
    <title>icons/pinterest/grey</title>
    <desc>Created with Sketch.</desc>
    <g id="sample-pages" stroke="none" stroke-width="1" fill="none" fill-rule="evenodd">
        <g id="icons/pinterest/grey" transform="translate(0.000000, -0.000000)" fill="#EAEAEA">
            <path d="M20,40 C8.954305,40 0,31.045695 0,20 C0,8.954305 8.954305,0 20,0 C31.045695,0 40,8.954305 40,20 C40,31.045695 31.045695,40 20,40 Z M30.302,20.151 C30.302,14.544 25.757,10 20.151,10 C14.545,10 10,14.544 10,20.151 C10,24.308 12.5,27.878 16.076,29.448 C16.048,28.74 16.071,27.889 16.253,27.118 C16.448,26.293 17.559,21.586 17.559,21.586 C17.559,21.586 17.235,20.938 17.235,19.98 C17.235,18.476 18.107,17.352 19.193,17.352 C20.116,17.352 20.562,18.046 20.562,18.876 C20.562,19.804 19.97,21.193 19.665,22.479 C19.411,23.555 20.205,24.434 21.268,24.434 C23.191,24.434 24.486,21.964 24.486,19.037 C24.486,16.812 22.988,15.147 20.262,15.147 C17.183,15.147 15.265,17.443 15.265,20.008 C15.265,20.892 15.526,21.516 15.934,21.999 C16.122,22.221 16.148,22.31 16.08,22.565 C16.031,22.752 15.919,23.201 15.873,23.379 C15.806,23.637 15.597,23.728 15.365,23.633 C13.946,23.054 13.286,21.501 13.286,19.755 C13.286,16.872 15.718,13.414 20.541,13.414 C24.417,13.414 26.967,16.219 26.967,19.229 C26.967,23.211 24.754,26.186 21.49,26.186 C20.394,26.186 19.363,25.594 19.01,24.921 C19.01,24.921 18.421,27.26 18.296,27.711 C18.081,28.494 17.66,29.276 17.274,29.886 C18.187,30.156 19.152,30.302 20.151,30.302 C25.757,30.302 30.302,25.757 30.302,20.151 Z"></path>
        </g>
    </g>
</svg>