<?xml version="1.0" encoding="UTF-8"?>
<svg width="40px" height="40px" viewBox="0 0 40 40" version="1.1" xmlns="http://www.w3.org/2000/svg" xmlns:xlink="http://www.w3.org/1999/xlink">
    <!-- Generator: Sketch 52 (66869) - http://www.bohemiancoding.com/sketch -->
    <title>icons/twitter/grey</title>
    <desc>Created with Sketch.</desc>
    <g id="sample-pages" stroke="none" stroke-width="1" fill="none" fill-rule="evenodd">
        <g id="icons/twitter/grey" transform="translate(0.000000, -0.000000)" fill="#EAEAEA">
            <path d="M20,40 C8.954305,40 0,31.045695 0,20 C0,8.954305 8.954305,-4.54747351e-13 20,-4.54747351e-13 C31.045695,-4.54747351e-13 40,8.954305 40,20 C40,31.045695 31.045695,40 20,40 Z M27.674,16.906 C28.447,16.348 29.118,15.651 29.649,14.857 C28.939,15.172 28.176,15.385 27.375,15.48 C28.193,14.99 28.821,14.214 29.116,13.29 C28.351,13.744 27.504,14.073 26.602,14.251 C25.88,13.481 24.851,13 23.712,13 C21.525,13 19.753,14.773 19.753,16.959 C19.753,17.27 19.788,17.572 19.855,17.862 C16.565,17.697 13.648,16.12 11.695,13.725 C11.354,14.31 11.159,14.99 11.159,15.716 C11.159,17.089 11.858,18.301 12.92,19.011 C12.271,18.99 11.661,18.812 11.127,18.516 L11.127,18.566 C11.127,20.484 12.491,22.084 14.302,22.448 C13.97,22.538 13.62,22.587 13.259,22.587 C13.004,22.587 12.756,22.562 12.515,22.515 C13.018,24.088 14.48,25.233 16.213,25.265 C14.858,26.327 13.151,26.96 11.296,26.96 C10.976,26.96 10.661,26.941 10.351,26.905 C12.104,28.028 14.185,28.683 16.421,28.683 C23.703,28.683 27.685,22.651 27.685,17.419 C27.685,17.247 27.681,17.076 27.674,16.906 Z"></path>
        </g>
    </g>
</svg>